<mxfile host="app.diagrams.net" modified="2023-01-28T08:46:44.861Z" agent="5.0 (Macintosh; Intel Mac OS X 10_15_7) AppleWebKit/537.36 (KHTML, like Gecko) Chrome/109.0.0.0 Safari/537.36" etag="_kctDkmoNbk939-GPW9h" version="20.8.13" type="github">
  <diagram id="C5RBs43oDa-KdzZeNtuy" name="Page-1">
    <mxGraphModel dx="2141" dy="842" grid="0" gridSize="10" guides="1" tooltips="1" connect="1" arrows="1" fold="1" page="1" pageScale="1" pageWidth="827" pageHeight="1169" math="0" shadow="0">
      <root>
        <mxCell id="WIyWlLk6GJQsqaUBKTNV-0" />
        <mxCell id="WIyWlLk6GJQsqaUBKTNV-1" parent="WIyWlLk6GJQsqaUBKTNV-0" />
        <mxCell id="JscV2f2QoPjZ4ivwFRaJ-3" value="" style="edgeStyle=orthogonalEdgeStyle;rounded=1;orthogonalLoop=1;jettySize=auto;html=1;" edge="1" parent="WIyWlLk6GJQsqaUBKTNV-1" source="JscV2f2QoPjZ4ivwFRaJ-1" target="JscV2f2QoPjZ4ivwFRaJ-2">
          <mxGeometry relative="1" as="geometry" />
        </mxCell>
        <mxCell id="JscV2f2QoPjZ4ivwFRaJ-5" style="edgeStyle=orthogonalEdgeStyle;rounded=1;orthogonalLoop=1;jettySize=auto;html=1;" edge="1" parent="WIyWlLk6GJQsqaUBKTNV-1" source="JscV2f2QoPjZ4ivwFRaJ-1" target="JscV2f2QoPjZ4ivwFRaJ-4">
          <mxGeometry relative="1" as="geometry" />
        </mxCell>
        <mxCell id="JscV2f2QoPjZ4ivwFRaJ-1" value="Runnable" style="strokeWidth=2;html=1;shape=mxgraph.flowchart.start_2;whiteSpace=wrap;rounded=1;" vertex="1" parent="WIyWlLk6GJQsqaUBKTNV-1">
          <mxGeometry x="150" y="10" width="70" height="70" as="geometry" />
        </mxCell>
        <mxCell id="JscV2f2QoPjZ4ivwFRaJ-7" value="" style="edgeStyle=orthogonalEdgeStyle;rounded=1;orthogonalLoop=1;jettySize=auto;html=1;" edge="1" parent="WIyWlLk6GJQsqaUBKTNV-1" source="JscV2f2QoPjZ4ivwFRaJ-2" target="JscV2f2QoPjZ4ivwFRaJ-6">
          <mxGeometry relative="1" as="geometry" />
        </mxCell>
        <mxCell id="JscV2f2QoPjZ4ivwFRaJ-2" value="execute(Runnable)" style="whiteSpace=wrap;html=1;strokeWidth=2;rounded=1;" vertex="1" parent="WIyWlLk6GJQsqaUBKTNV-1">
          <mxGeometry x="120" y="230" width="130" height="60" as="geometry" />
        </mxCell>
        <mxCell id="JscV2f2QoPjZ4ivwFRaJ-8" style="edgeStyle=orthogonalEdgeStyle;rounded=1;orthogonalLoop=1;jettySize=auto;html=1;entryX=0.5;entryY=0;entryDx=0;entryDy=0;" edge="1" parent="WIyWlLk6GJQsqaUBKTNV-1" source="JscV2f2QoPjZ4ivwFRaJ-4" target="JscV2f2QoPjZ4ivwFRaJ-2">
          <mxGeometry relative="1" as="geometry" />
        </mxCell>
        <mxCell id="JscV2f2QoPjZ4ivwFRaJ-4" value="submit(Runnable)" style="whiteSpace=wrap;html=1;strokeWidth=2;rounded=1;" vertex="1" parent="WIyWlLk6GJQsqaUBKTNV-1">
          <mxGeometry x="20" y="130" width="130" height="60" as="geometry" />
        </mxCell>
        <mxCell id="JscV2f2QoPjZ4ivwFRaJ-10" value="TRUE" style="edgeStyle=orthogonalEdgeStyle;rounded=1;orthogonalLoop=1;jettySize=auto;html=1;" edge="1" parent="WIyWlLk6GJQsqaUBKTNV-1" source="JscV2f2QoPjZ4ivwFRaJ-6" target="JscV2f2QoPjZ4ivwFRaJ-9">
          <mxGeometry relative="1" as="geometry" />
        </mxCell>
        <mxCell id="JscV2f2QoPjZ4ivwFRaJ-14" value="FALSE" style="edgeStyle=orthogonalEdgeStyle;rounded=1;orthogonalLoop=1;jettySize=auto;html=1;" edge="1" parent="WIyWlLk6GJQsqaUBKTNV-1" source="JscV2f2QoPjZ4ivwFRaJ-6" target="JscV2f2QoPjZ4ivwFRaJ-13">
          <mxGeometry relative="1" as="geometry" />
        </mxCell>
        <mxCell id="JscV2f2QoPjZ4ivwFRaJ-6" value="Ruunable == NULL" style="rhombus;whiteSpace=wrap;html=1;strokeWidth=2;rounded=1;" vertex="1" parent="WIyWlLk6GJQsqaUBKTNV-1">
          <mxGeometry x="110" y="340" width="150" height="80" as="geometry" />
        </mxCell>
        <mxCell id="JscV2f2QoPjZ4ivwFRaJ-9" value="NPE" style="strokeWidth=2;html=1;shape=mxgraph.flowchart.start_2;whiteSpace=wrap;fillColor=#f8cecc;strokeColor=#b85450;rounded=1;" vertex="1" parent="WIyWlLk6GJQsqaUBKTNV-1">
          <mxGeometry x="-120" y="345" width="70" height="70" as="geometry" />
        </mxCell>
        <mxCell id="JscV2f2QoPjZ4ivwFRaJ-16" value="TRUE" style="edgeStyle=orthogonalEdgeStyle;rounded=1;orthogonalLoop=1;jettySize=auto;html=1;" edge="1" parent="WIyWlLk6GJQsqaUBKTNV-1" source="JscV2f2QoPjZ4ivwFRaJ-13" target="JscV2f2QoPjZ4ivwFRaJ-15">
          <mxGeometry relative="1" as="geometry" />
        </mxCell>
        <mxCell id="JscV2f2QoPjZ4ivwFRaJ-28" value="FALSE" style="edgeStyle=orthogonalEdgeStyle;rounded=1;orthogonalLoop=1;jettySize=auto;html=1;" edge="1" parent="WIyWlLk6GJQsqaUBKTNV-1" source="JscV2f2QoPjZ4ivwFRaJ-13" target="JscV2f2QoPjZ4ivwFRaJ-26">
          <mxGeometry relative="1" as="geometry">
            <Array as="points">
              <mxPoint x="390" y="540" />
              <mxPoint x="390" y="1120" />
            </Array>
          </mxGeometry>
        </mxCell>
        <mxCell id="JscV2f2QoPjZ4ivwFRaJ-13" value="当前工作线程数 &amp;lt; 核心线程数" style="rhombus;whiteSpace=wrap;html=1;strokeWidth=2;rounded=1;" vertex="1" parent="WIyWlLk6GJQsqaUBKTNV-1">
          <mxGeometry x="80" y="500" width="210" height="80" as="geometry" />
        </mxCell>
        <mxCell id="JscV2f2QoPjZ4ivwFRaJ-18" value="" style="edgeStyle=orthogonalEdgeStyle;rounded=1;orthogonalLoop=1;jettySize=auto;html=1;" edge="1" parent="WIyWlLk6GJQsqaUBKTNV-1" source="JscV2f2QoPjZ4ivwFRaJ-15" target="JscV2f2QoPjZ4ivwFRaJ-17">
          <mxGeometry relative="1" as="geometry">
            <Array as="points">
              <mxPoint x="-170" y="670" />
            </Array>
          </mxGeometry>
        </mxCell>
        <mxCell id="JscV2f2QoPjZ4ivwFRaJ-15" value="新增一个 Worker" style="whiteSpace=wrap;html=1;strokeWidth=2;rounded=1;" vertex="1" parent="WIyWlLk6GJQsqaUBKTNV-1">
          <mxGeometry x="-230" y="510" width="120" height="60" as="geometry" />
        </mxCell>
        <mxCell id="JscV2f2QoPjZ4ivwFRaJ-20" value="FALSE" style="edgeStyle=orthogonalEdgeStyle;rounded=1;orthogonalLoop=1;jettySize=auto;html=1;" edge="1" parent="WIyWlLk6GJQsqaUBKTNV-1" source="JscV2f2QoPjZ4ivwFRaJ-17" target="JscV2f2QoPjZ4ivwFRaJ-19">
          <mxGeometry relative="1" as="geometry" />
        </mxCell>
        <mxCell id="JscV2f2QoPjZ4ivwFRaJ-22" value="TRUE" style="edgeStyle=orthogonalEdgeStyle;rounded=1;orthogonalLoop=1;jettySize=auto;html=1;entryX=0;entryY=0.5;entryDx=0;entryDy=0;entryPerimeter=0;" edge="1" parent="WIyWlLk6GJQsqaUBKTNV-1" source="JscV2f2QoPjZ4ivwFRaJ-17" target="JscV2f2QoPjZ4ivwFRaJ-23">
          <mxGeometry x="0.4118" relative="1" as="geometry">
            <mxPoint x="270" y="860" as="targetPoint" />
            <mxPoint as="offset" />
          </mxGeometry>
        </mxCell>
        <mxCell id="JscV2f2QoPjZ4ivwFRaJ-17" value="Worker 是否添加成功" style="rhombus;whiteSpace=wrap;html=1;strokeWidth=2;rounded=1;" vertex="1" parent="WIyWlLk6GJQsqaUBKTNV-1">
          <mxGeometry x="80" y="720" width="210" height="80" as="geometry" />
        </mxCell>
        <mxCell id="JscV2f2QoPjZ4ivwFRaJ-27" value="" style="edgeStyle=orthogonalEdgeStyle;rounded=1;orthogonalLoop=1;jettySize=auto;html=1;" edge="1" parent="WIyWlLk6GJQsqaUBKTNV-1" source="JscV2f2QoPjZ4ivwFRaJ-19" target="JscV2f2QoPjZ4ivwFRaJ-26">
          <mxGeometry relative="1" as="geometry" />
        </mxCell>
        <mxCell id="JscV2f2QoPjZ4ivwFRaJ-19" value="重新获取当前线程池状态&lt;br&gt;ctl.get()" style="whiteSpace=wrap;html=1;strokeWidth=2;rounded=1;" vertex="1" parent="WIyWlLk6GJQsqaUBKTNV-1">
          <mxGeometry x="100" y="950" width="170" height="60" as="geometry" />
        </mxCell>
        <mxCell id="JscV2f2QoPjZ4ivwFRaJ-23" value="END" style="strokeWidth=2;html=1;shape=mxgraph.flowchart.start_2;whiteSpace=wrap;fillColor=#f8cecc;strokeColor=#b85450;rounded=1;" vertex="1" parent="WIyWlLk6GJQsqaUBKTNV-1">
          <mxGeometry x="290" y="830" width="70" height="70" as="geometry" />
        </mxCell>
        <mxCell id="JscV2f2QoPjZ4ivwFRaJ-30" value="TRUE" style="edgeStyle=orthogonalEdgeStyle;rounded=1;orthogonalLoop=1;jettySize=auto;html=1;" edge="1" parent="WIyWlLk6GJQsqaUBKTNV-1" source="JscV2f2QoPjZ4ivwFRaJ-26" target="JscV2f2QoPjZ4ivwFRaJ-29">
          <mxGeometry relative="1" as="geometry" />
        </mxCell>
        <mxCell id="JscV2f2QoPjZ4ivwFRaJ-50" value="如果新增队列失败" style="edgeStyle=orthogonalEdgeStyle;rounded=1;orthogonalLoop=1;jettySize=auto;html=1;" edge="1" parent="WIyWlLk6GJQsqaUBKTNV-1" source="JscV2f2QoPjZ4ivwFRaJ-26" target="JscV2f2QoPjZ4ivwFRaJ-49">
          <mxGeometry relative="1" as="geometry" />
        </mxCell>
        <mxCell id="JscV2f2QoPjZ4ivwFRaJ-26" value="线程池状态 isRunning&lt;br&gt;&amp;amp;&amp;amp;&lt;br&gt;队列新增任务成功" style="rhombus;whiteSpace=wrap;html=1;strokeWidth=2;rounded=1;" vertex="1" parent="WIyWlLk6GJQsqaUBKTNV-1">
          <mxGeometry x="70" y="1080" width="230" height="80" as="geometry" />
        </mxCell>
        <mxCell id="JscV2f2QoPjZ4ivwFRaJ-48" value="" style="group;rounded=1;" vertex="1" connectable="0" parent="WIyWlLk6GJQsqaUBKTNV-1">
          <mxGeometry x="420" y="1170" width="600" height="500" as="geometry" />
        </mxCell>
        <mxCell id="JscV2f2QoPjZ4ivwFRaJ-29" value="重新获取线程池状态" style="whiteSpace=wrap;html=1;strokeWidth=2;rounded=1;" vertex="1" parent="JscV2f2QoPjZ4ivwFRaJ-48">
          <mxGeometry x="55" width="120" height="60" as="geometry" />
        </mxCell>
        <mxCell id="JscV2f2QoPjZ4ivwFRaJ-31" value="线程池非运行状态&lt;br&gt;&amp;amp;&amp;amp;&lt;br&gt;从队列中删除该任务 (Runnable)" style="rhombus;whiteSpace=wrap;html=1;strokeWidth=2;rounded=1;" vertex="1" parent="JscV2f2QoPjZ4ivwFRaJ-48">
          <mxGeometry y="130" width="230" height="80" as="geometry" />
        </mxCell>
        <mxCell id="JscV2f2QoPjZ4ivwFRaJ-32" value="" style="edgeStyle=orthogonalEdgeStyle;rounded=1;orthogonalLoop=1;jettySize=auto;html=1;" edge="1" parent="JscV2f2QoPjZ4ivwFRaJ-48" source="JscV2f2QoPjZ4ivwFRaJ-29" target="JscV2f2QoPjZ4ivwFRaJ-31">
          <mxGeometry relative="1" as="geometry" />
        </mxCell>
        <mxCell id="JscV2f2QoPjZ4ivwFRaJ-35" value="执行拒绝策略" style="whiteSpace=wrap;html=1;strokeWidth=2;rounded=1;" vertex="1" parent="JscV2f2QoPjZ4ivwFRaJ-48">
          <mxGeometry x="320" y="140" width="120" height="60" as="geometry" />
        </mxCell>
        <mxCell id="JscV2f2QoPjZ4ivwFRaJ-36" value="TRUE" style="edgeStyle=orthogonalEdgeStyle;rounded=1;orthogonalLoop=1;jettySize=auto;html=1;" edge="1" parent="JscV2f2QoPjZ4ivwFRaJ-48" source="JscV2f2QoPjZ4ivwFRaJ-31" target="JscV2f2QoPjZ4ivwFRaJ-35">
          <mxGeometry relative="1" as="geometry" />
        </mxCell>
        <mxCell id="JscV2f2QoPjZ4ivwFRaJ-37" value="END" style="strokeWidth=2;html=1;shape=mxgraph.flowchart.start_2;whiteSpace=wrap;fillColor=#f8cecc;strokeColor=#b85450;rounded=1;" vertex="1" parent="JscV2f2QoPjZ4ivwFRaJ-48">
          <mxGeometry x="530" y="135" width="70" height="70" as="geometry" />
        </mxCell>
        <mxCell id="JscV2f2QoPjZ4ivwFRaJ-38" style="edgeStyle=orthogonalEdgeStyle;rounded=1;orthogonalLoop=1;jettySize=auto;html=1;" edge="1" parent="JscV2f2QoPjZ4ivwFRaJ-48" source="JscV2f2QoPjZ4ivwFRaJ-35" target="JscV2f2QoPjZ4ivwFRaJ-37">
          <mxGeometry relative="1" as="geometry" />
        </mxCell>
        <mxCell id="JscV2f2QoPjZ4ivwFRaJ-39" value="非核心线程数 == 0" style="rhombus;whiteSpace=wrap;html=1;strokeWidth=2;rounded=1;" vertex="1" parent="JscV2f2QoPjZ4ivwFRaJ-48">
          <mxGeometry y="290" width="230" height="80" as="geometry" />
        </mxCell>
        <mxCell id="JscV2f2QoPjZ4ivwFRaJ-40" value="" style="edgeStyle=orthogonalEdgeStyle;rounded=1;orthogonalLoop=1;jettySize=auto;html=1;" edge="1" parent="JscV2f2QoPjZ4ivwFRaJ-48" source="JscV2f2QoPjZ4ivwFRaJ-31" target="JscV2f2QoPjZ4ivwFRaJ-39">
          <mxGeometry relative="1" as="geometry" />
        </mxCell>
        <mxCell id="JscV2f2QoPjZ4ivwFRaJ-41" value="新增 Worker" style="whiteSpace=wrap;html=1;strokeWidth=2;rounded=1;" vertex="1" parent="JscV2f2QoPjZ4ivwFRaJ-48">
          <mxGeometry x="320" y="300" width="120" height="60" as="geometry" />
        </mxCell>
        <mxCell id="JscV2f2QoPjZ4ivwFRaJ-42" value="TRUE" style="edgeStyle=orthogonalEdgeStyle;rounded=1;orthogonalLoop=1;jettySize=auto;html=1;" edge="1" parent="JscV2f2QoPjZ4ivwFRaJ-48" source="JscV2f2QoPjZ4ivwFRaJ-39" target="JscV2f2QoPjZ4ivwFRaJ-41">
          <mxGeometry relative="1" as="geometry" />
        </mxCell>
        <mxCell id="JscV2f2QoPjZ4ivwFRaJ-43" value="END" style="strokeWidth=2;html=1;shape=mxgraph.flowchart.start_2;whiteSpace=wrap;fillColor=#f8cecc;strokeColor=#b85450;rounded=1;" vertex="1" parent="JscV2f2QoPjZ4ivwFRaJ-48">
          <mxGeometry x="530" y="295" width="70" height="70" as="geometry" />
        </mxCell>
        <mxCell id="JscV2f2QoPjZ4ivwFRaJ-44" style="edgeStyle=orthogonalEdgeStyle;rounded=1;orthogonalLoop=1;jettySize=auto;html=1;" edge="1" parent="JscV2f2QoPjZ4ivwFRaJ-48" source="JscV2f2QoPjZ4ivwFRaJ-41" target="JscV2f2QoPjZ4ivwFRaJ-43">
          <mxGeometry relative="1" as="geometry" />
        </mxCell>
        <mxCell id="JscV2f2QoPjZ4ivwFRaJ-46" value="END" style="strokeWidth=2;html=1;shape=mxgraph.flowchart.start_2;whiteSpace=wrap;fillColor=#f8cecc;strokeColor=#b85450;rounded=1;" vertex="1" parent="JscV2f2QoPjZ4ivwFRaJ-48">
          <mxGeometry x="80" y="430" width="70" height="70" as="geometry" />
        </mxCell>
        <mxCell id="JscV2f2QoPjZ4ivwFRaJ-47" value="FALSE" style="edgeStyle=orthogonalEdgeStyle;rounded=1;orthogonalLoop=1;jettySize=auto;html=1;entryX=0.5;entryY=0;entryDx=0;entryDy=0;entryPerimeter=0;" edge="1" parent="JscV2f2QoPjZ4ivwFRaJ-48" source="JscV2f2QoPjZ4ivwFRaJ-39" target="JscV2f2QoPjZ4ivwFRaJ-46">
          <mxGeometry relative="1" as="geometry" />
        </mxCell>
        <mxCell id="JscV2f2QoPjZ4ivwFRaJ-52" style="edgeStyle=orthogonalEdgeStyle;rounded=1;orthogonalLoop=1;jettySize=auto;html=1;entryX=0.5;entryY=0;entryDx=0;entryDy=0;entryPerimeter=0;fillColor=#d5e8d4;strokeColor=#82b366;strokeWidth=4;" edge="1" parent="WIyWlLk6GJQsqaUBKTNV-1" source="JscV2f2QoPjZ4ivwFRaJ-49" target="JscV2f2QoPjZ4ivwFRaJ-51">
          <mxGeometry relative="1" as="geometry">
            <Array as="points">
              <mxPoint x="185" y="1431" />
              <mxPoint x="185" y="1431" />
            </Array>
          </mxGeometry>
        </mxCell>
        <mxCell id="JscV2f2QoPjZ4ivwFRaJ-53" value="新增成功" style="edgeLabel;html=1;align=center;verticalAlign=middle;resizable=0;points=[];rounded=1;" vertex="1" connectable="0" parent="JscV2f2QoPjZ4ivwFRaJ-52">
          <mxGeometry x="-0.45" y="2" relative="1" as="geometry">
            <mxPoint x="3" y="30" as="offset" />
          </mxGeometry>
        </mxCell>
        <mxCell id="JscV2f2QoPjZ4ivwFRaJ-55" value="x新增 Worker 失败" style="edgeStyle=orthogonalEdgeStyle;rounded=1;orthogonalLoop=1;jettySize=auto;html=1;fillColor=#f8cecc;strokeColor=#b85450;strokeWidth=4;" edge="1" parent="WIyWlLk6GJQsqaUBKTNV-1" source="JscV2f2QoPjZ4ivwFRaJ-49" target="JscV2f2QoPjZ4ivwFRaJ-54">
          <mxGeometry relative="1" as="geometry" />
        </mxCell>
        <mxCell id="JscV2f2QoPjZ4ivwFRaJ-49" value="尝试新增 Worker" style="rhombus;whiteSpace=wrap;html=1;strokeWidth=2;rounded=1;" vertex="1" parent="WIyWlLk6GJQsqaUBKTNV-1">
          <mxGeometry x="70" y="1240" width="230" height="80" as="geometry" />
        </mxCell>
        <mxCell id="JscV2f2QoPjZ4ivwFRaJ-51" value="END" style="strokeWidth=2;html=1;shape=mxgraph.flowchart.start_2;whiteSpace=wrap;fillColor=#f8cecc;strokeColor=#b85450;rounded=1;" vertex="1" parent="WIyWlLk6GJQsqaUBKTNV-1">
          <mxGeometry x="150" y="1566" width="70" height="70" as="geometry" />
        </mxCell>
        <mxCell id="JscV2f2QoPjZ4ivwFRaJ-56" style="edgeStyle=orthogonalEdgeStyle;rounded=1;orthogonalLoop=1;jettySize=auto;html=1;strokeWidth=3;" edge="1" parent="WIyWlLk6GJQsqaUBKTNV-1" source="JscV2f2QoPjZ4ivwFRaJ-54" target="JscV2f2QoPjZ4ivwFRaJ-51">
          <mxGeometry relative="1" as="geometry" />
        </mxCell>
        <mxCell id="JscV2f2QoPjZ4ivwFRaJ-54" value="执行拒绝策略" style="whiteSpace=wrap;html=1;strokeWidth=2;rounded=1;" vertex="1" parent="WIyWlLk6GJQsqaUBKTNV-1">
          <mxGeometry x="220" y="1390" width="120" height="60" as="geometry" />
        </mxCell>
      </root>
    </mxGraphModel>
  </diagram>
</mxfile>
